<svg width="100" height="100" viewBox="0 0 100 100" fill="none" xmlns="http://www.w3.org/2000/svg">
<g clip-path="url(#clip0_6328_6130)">
<path d="M80.4207 57.9664C76.9112 57.998 73.4631 58.8967 70.3781 60.5841C67.2932 62.2714 64.6655 64.6957 62.7255 67.6448L52.9513 55.3354L45.9932 61.4849C39.2148 67.4917 32.4294 73.4881 25.6372 79.474C25.1605 79.8456 24.7983 80.3462 24.593 80.9174C24.3877 81.4886 24.3477 82.1069 24.4775 82.7002C25.0987 86.9599 25.6061 91.2301 26.1549 95.5003C26.2591 95.846 26.2346 96.2183 26.0858 96.547C25.9371 96.8758 25.6745 97.1384 25.3472 97.2856C24.5396 97.6406 24.1254 97.0873 23.7215 96.4922C21.7336 93.5375 19.7146 90.6246 17.7473 87.6595C16.3887 85.6021 14.6269 83.8468 12.5703 82.5018C9.57794 80.5494 6.59593 78.5761 3.61394 76.6133C3.06517 76.2583 2.43357 75.9347 2.70278 75.1203C2.81964 74.7596 3.07004 74.4584 3.40186 74.2794C3.73367 74.1004 4.12125 74.0575 4.48365 74.1597L14.9205 75.2978C15.355 75.3057 15.788 75.3511 16.2148 75.4335C18.2856 76.0077 19.5696 75.1934 20.8949 73.6064C28.1428 64.8363 35.5667 56.1602 42.9285 47.4527C43.1356 47.1917 43.3323 46.9202 43.6119 46.5757L38.3313 42.3994L9.41222 19.8373C8.64511 19.356 8.08203 18.6052 7.83155 17.7299C7.58107 16.8546 7.66087 15.9167 8.05577 15.0973C8.43914 14.2561 9.10294 13.577 9.93157 13.1783C10.7602 12.7796 11.7012 12.6865 12.5909 12.9152L31.0834 16.653C42.2452 18.9081 53.4138 21.1598 64.5893 23.408C64.8765 23.4829 65.1792 23.4703 65.4593 23.3718C65.7394 23.2733 65.9844 23.0934 66.1632 22.8547C71.6301 17.0358 77.104 11.2273 82.5848 5.42933C83.3422 4.51792 84.2948 3.79162 85.3708 3.30515C86.4469 2.81868 87.6185 2.58471 88.7972 2.62081C89.9012 2.68736 90.9714 3.02977 91.9115 3.61721C92.8517 4.20464 93.6322 5.01863 94.1827 5.9859C94.7332 6.95317 95.0364 8.04331 95.0651 9.15816C95.0937 10.273 94.847 11.3775 94.347 12.3723C93.817 13.4277 93.1172 14.3874 92.2762 15.2122C86.754 20.7805 81.2076 26.3279 75.6371 31.8545C75.3702 32.0699 75.1741 32.3616 75.0744 32.6914C74.9746 33.0211 74.9759 33.3734 75.078 33.7024C76.8279 41.4285 78.5259 49.165 80.2551 56.9014C80.3069 57.2251 80.3482 57.5592 80.4207 57.9664Z" stroke="#3464AF" stroke-width="5" stroke-miterlimit="10"/>
<path d="M63.8126 80.9771C63.8167 77.3725 64.8793 73.8498 66.8665 70.8534C68.8536 67.857 71.6762 65.521 74.9783 64.1402C78.2803 62.7593 81.914 62.3955 85.421 63.0945C88.9279 63.7934 92.151 65.5239 94.6838 68.0677C97.2166 70.6115 98.9456 73.8545 99.6528 77.3879C100.36 80.9213 100.014 84.5868 98.6575 87.922C97.3013 91.2571 94.996 94.1126 92.0323 96.1283C89.0687 98.144 85.5794 99.2296 82.0047 99.2481C79.6172 99.2647 77.25 98.8039 75.0402 97.8925C72.8303 96.9811 70.8216 95.637 69.1299 93.938C67.4383 92.2391 66.0974 90.2189 65.1847 87.9943C64.272 85.7696 63.8057 83.3846 63.8126 80.9771ZM77.2729 86.3958C76.0615 85.1533 74.8914 83.9318 73.6903 82.7311C72.4892 81.5304 71.4642 81.5722 70.5841 82.4283C69.704 83.2845 69.7558 84.5164 70.874 85.644L75.6369 90.4467C76.9519 91.7622 78.0598 91.7309 79.2712 90.311C81.342 87.9305 83.3507 85.5292 85.3905 83.1383C87.4303 80.7474 89.4286 78.4087 91.4165 76.0178C91.6563 75.7544 91.825 75.4334 91.9064 75.0854C91.9879 74.7374 91.9793 74.3742 91.8817 74.0305C91.784 73.6868 91.6004 73.3742 91.3485 73.1226C91.0967 72.8709 90.785 72.6886 90.4433 72.5933C90.0034 72.5126 89.5494 72.5694 89.1424 72.756C88.7353 72.9426 88.3945 73.2501 88.1655 73.6373C84.5933 77.824 80.9901 82.0525 77.2833 86.3958H77.2729Z" fill="#44454C"/>
</g>
<defs>
<clipPath id="clip0_6328_6130">
<rect width="100" height="100" fill="white"/>
</clipPath>
</defs>
</svg>
