<svg width="98" height="98" viewBox="0 0 98 98" fill="none" xmlns="http://www.w3.org/2000/svg">
<g clip-path="url(#clip0_6322_6356)">
<path d="M20.7188 87.6558C19.7299 91.315 18.0397 92.5294 13.9102 92.5717C11.297 92.5963 8.68585 92.5963 6.07667 92.5717C2.48056 92.5347 0.0351858 90.486 0.0231987 87.376C-0.0207537 78.6637 -0.0207537 69.9514 0.0231987 61.2392C0.0231987 58.1608 2.3427 56.1702 5.83692 56.091C8.76175 56.0223 11.6926 56.0329 14.6174 56.054C17.2546 56.054 19.0526 57.1681 20.2334 59.2749C20.4626 59.5758 20.7597 59.8318 21.1062 60.0271C21.4527 60.2224 21.841 60.3528 22.2472 60.4102C23.5858 60.5238 24.9324 60.545 26.2748 60.4735C29.3871 60.4493 32.4071 61.4042 34.7916 63.1664C38.4596 65.8065 42.1516 68.4466 45.9575 70.9494C47.086 71.6723 48.4248 72.0972 49.8174 72.1744C54.4803 72.3222 59.1553 72.2061 63.8242 72.2483C68.7629 72.2906 70.2912 73.3571 71.6158 77.6869C77.3396 76.1504 83.0394 74.5769 88.7752 73.1195C90.1891 72.7143 91.6861 72.5846 93.1625 72.7394C94.4529 72.9612 95.6235 73.5537 96.4911 74.4241C97.3586 75.2944 97.8743 76.3936 97.9573 77.5496C98.1204 78.7763 97.8005 80.0152 97.0509 81.059C96.3014 82.1028 95.1678 82.8882 93.8397 83.2839C88.6254 85.095 83.369 86.8163 78.1247 88.564C69.4881 91.4523 60.8274 94.3036 52.2148 97.2446C50.6514 97.8412 48.9445 98.0869 47.2468 97.9598C45.5492 97.8326 43.9139 97.3365 42.4873 96.516C37.7764 93.9604 32.9336 91.5896 28.2886 88.9495C27.1869 88.3031 25.9504 87.8559 24.651 87.6338C23.3515 87.4118 22.015 87.4192 20.7188 87.6558ZM20.6349 84.4877C25.5856 83.4 29.0258 85.6547 32.6219 87.5714C36.5417 89.6834 40.4974 91.7163 44.3932 93.8389C45.3182 94.3774 46.3792 94.7072 47.4829 94.7992C48.5866 94.8913 49.6991 94.7429 50.7224 94.367C64.3756 89.7908 78.0348 85.2147 91.7001 80.6385C93.4981 80.0418 94.9725 79.2393 94.2353 77.3014C93.4981 75.3636 91.76 75.559 89.932 76.0606C84.2741 77.6077 78.6102 79.1389 72.9284 80.6015C70.2912 81.2774 67.6181 82.1856 64.915 82.2965C59.395 82.5658 53.845 82.381 48.307 82.3862C46.9165 82.3862 45.3102 82.3862 45.3102 80.8022C45.3102 79.2181 46.8865 79.1917 48.265 79.1917H65.1188C66.5932 79.1917 67.8398 78.6637 67.5162 77.3014C67.3484 76.5569 66.1197 75.9392 65.2447 75.427C64.8551 75.1999 64.1658 75.3794 63.6084 75.3794C59.0174 75.3794 54.4204 75.5537 49.8234 75.295C47.7323 75.1622 45.7174 74.5487 43.9797 73.5156C40.2047 71.217 36.6012 68.7073 33.1913 66.0019C29.4094 62.9922 25.0821 63.6733 20.605 63.7314V84.4825L20.6349 84.4877ZM17.1047 74.3287C17.1047 70.2154 17.1047 66.1022 17.1047 61.9889C17.1047 59.7607 16.3855 59.164 13.8203 59.1376C11.3689 59.1112 8.91758 59.1376 6.46623 59.1376C4.50635 59.1376 3.54139 59.9508 3.54139 61.6827C3.54139 70.0535 3.54139 78.4191 3.54139 86.7793C3.54139 88.6221 4.52432 89.4511 6.60407 89.4194C9.00148 89.3719 11.3509 89.4194 13.7244 89.4194C16.5953 89.3825 17.1047 88.8914 17.1167 86.283C17.1167 82.2965 17.1047 78.3522 17.1047 74.3498V74.3287Z" fill="#44454C"/>
<path d="M54.0856 21.1095C51.2626 17.4978 51.9279 15.655 56.6508 13.807C55.9615 11.3306 55.2124 8.85418 54.607 6.35138C54.2709 5.27594 54.1812 4.15229 54.3433 3.046C54.5591 2.07972 55.2064 0.838883 56.0874 0.44815C56.7707 0.13662 58.1192 0.891685 59.1261 1.27186C59.4258 1.38802 59.5697 1.79987 59.7854 2.12724C62.7822 -0.676526 64.0228 -0.665966 66.5101 1.88436C67.6669 1.2613 68.7757 0.205263 69.9264 0.205263C71.0772 0.205263 72.3238 1.10289 73.8222 1.72595C74.1205 1.3606 74.4665 1.02742 74.8531 0.73328C76.5793 -0.444199 78.7849 0.205262 78.8988 2.11668C78.9528 4.19477 78.7336 6.27139 78.2454 8.30505C77.8679 10.1373 77.1246 11.9114 76.5493 13.6961C81.404 15.729 82.0873 17.5242 79.3602 21.0408C81.9914 24.399 84.9402 27.6199 87.1998 31.184C90.1546 35.8411 93.2352 40.5775 95.0513 45.6147C98.3477 54.7706 93.2892 63.5673 83.0642 66.9414C72.4521 70.5521 60.688 70.522 50.0999 66.8569C39.779 63.3561 35.158 54.3587 38.3826 44.9494C40.8639 37.6998 45.6707 31.5431 50.5134 25.4128C51.6342 23.9924 52.8389 22.609 54.0856 21.1095ZM66.9057 21.6375C66.0383 21.7036 65.166 21.7036 64.2985 21.6375C59.8034 20.9563 56.9025 22.5193 54.3972 25.9091C49.6624 32.3298 44.3401 38.439 41.8109 45.8999C38.904 54.4643 43.495 62.0149 53.1685 64.6128C61.6257 66.8564 70.6282 66.9625 79.1505 64.919C86.0131 63.335 90.8198 59.7603 92.0905 53.271C92.8645 49.8861 92.3131 46.3699 90.5262 43.2967C87.3256 38.0166 83.6276 33.0163 80.4151 27.7572C77.4903 22.9734 73.4866 20.46 67.1454 21.6797C67.0649 21.6807 66.9845 21.6736 66.9057 21.6586V21.6375ZM57.8974 5.48543C58.7545 8.21528 59.3779 10.5069 60.2409 12.7298C60.413 13.0561 60.6698 13.3423 60.9904 13.5651C61.3111 13.788 61.6866 13.9414 62.0869 14.0129C65.0837 14.166 68.0804 14.1502 71.0772 14.0657C71.6765 14.0657 72.6415 13.6063 72.8093 13.1681C73.7563 10.7656 74.5055 8.30505 75.4644 5.43263C72.7254 6.48867 71.3529 5.32175 70.1962 3.8169C67.1215 6.59427 66.1385 6.59955 63.2437 3.76938C62.1169 5.37455 60.6425 6.40418 57.8974 5.48543ZM77.2505 18.2106C75.2307 16.8536 57.382 17.0226 55.8656 18.2106H77.2505Z" fill="#3464AF"/>
<path d="M66.591 57.9089C64.2245 55.6468 61.5505 53.2584 59.3143 50.5982C58.7345 49.9088 59.6692 48.3651 59.9059 47.2195C60.7584 47.9208 61.6549 48.5851 62.5917 49.2098C64.1772 50.1807 65.881 51.7535 67.4784 51.705C68.7562 51.705 71.028 49.4525 70.8978 48.4622C70.6202 47.6786 70.1224 46.9593 69.4442 46.3624C68.766 45.7654 67.9265 45.3074 66.9933 45.0253C63.2307 44.2583 60.0952 43.1709 59.0895 39.8796C58.0837 36.5883 59.7521 33.9864 63.3727 32.1126C65.4906 31.0252 68.1055 30.7048 69.9276 32.1708C71.684 33.5375 73.2083 35.0919 74.4593 36.7922C74.8498 37.3262 73.915 38.5107 73.5837 39.3942C72.7792 38.8505 71.5368 38.4233 71.2173 37.7437C70.2471 35.4524 68.4841 34.0446 65.6562 34.9087C64.2837 35.3262 62.4261 37.2485 62.6982 38.1029C63.1242 39.501 64.8753 40.8408 66.4727 41.734C68.3066 42.7631 70.9925 42.8991 72.5544 44.0932C75.8082 46.5884 75.4532 50.4137 72.3177 53.0157C70.4837 54.5691 68.6852 56.1031 66.591 57.9089Z" fill="#44454C"/>
</g>
<defs>
<clipPath id="clip0_6322_6356">
<rect width="98" height="98" fill="white"/>
</clipPath>
</defs>
</svg>
