<svg width="98" height="98" viewBox="0 0 98 98" fill="none" xmlns="http://www.w3.org/2000/svg">
<g clip-path="url(#clip0_6322_6355)">
<path d="M74.4673 98.0005C72.7764 97.7275 71.1036 97.344 69.4588 96.8522C66.5496 95.8023 63.6954 94.5801 60.857 93.3334C57.8675 91.9011 54.5998 91.2131 51.3118 91.3239C50.2965 91.3702 49.2846 91.1709 48.3554 90.7415C46.1539 89.708 45.3597 87.1899 46.4448 84.7375C47.1502 83.0165 48.2546 81.5053 49.6586 80.3399C51.0626 79.1745 52.7222 78.3914 54.4883 78.0609C55.4239 77.864 56.3753 77.7738 57.4997 77.6098C57.193 77.2899 56.9729 77.0356 56.7134 76.7895C51.3904 71.2367 46.0595 65.7084 40.7601 60.1309C40.0645 59.4333 39.5423 58.5694 39.2388 57.6139C38.9353 56.6584 38.8596 55.6402 39.0184 54.6473C39.1772 53.6544 39.5655 52.7169 40.1499 51.9159C40.7342 51.1149 41.4969 50.4746 42.3719 50.0503L42.9459 49.8125C43.9955 49.3888 45.1422 49.3007 46.24 49.5592C47.3378 49.8178 48.3369 50.4113 49.1102 51.2643C51.2096 53.405 53.2696 55.5786 55.3296 57.7604C55.5599 58.0635 55.7552 58.3939 55.9114 58.7447C58.2702 55.5376 59.5047 54.9963 63.1844 55.3408C64.922 51.4611 68.9477 50.0093 72.706 52.6997L73.1385 52.0681C73.6177 51.327 74.2463 50.7039 74.9802 50.2424C75.7141 49.7809 76.5357 49.492 77.3877 49.3959C78.2397 49.2999 79.1015 49.3989 79.913 49.6862C80.7246 49.9735 81.4662 50.4421 82.0862 51.0592C86.0725 55.0865 89.9488 59.1876 93.8801 63.3625C96.006 65.6406 97.3828 68.5647 97.8115 71.7124C97.8488 71.8355 97.9045 71.9518 97.9766 72.0569V76.0514C97.9033 76.1938 97.8478 76.3454 97.8115 76.5025C97.3519 80.0124 95.9231 83.307 93.6993 85.9842C91.2147 88.9616 88.5257 91.7258 85.8366 94.4899C84.0827 96.1656 81.8954 97.2666 79.5465 97.656C79.0512 97.7544 78.5716 97.8856 78.0841 98.0087L74.4673 98.0005ZM49.9515 86.9849C50.4783 86.9849 50.7378 87.0669 50.9816 87.0505C55.5026 86.6978 59.6698 88.0102 63.7033 89.9623C66.9086 91.6708 70.3405 92.8706 73.8854 93.522C77.8875 94.1044 81.4807 93.3416 84.3663 90.1099C85.6244 88.6992 87.0318 87.4278 88.2977 86.0088C89.5417 84.6331 90.6702 83.1486 91.6707 81.5714C95.0045 75.9201 94.8158 70.0227 89.8859 65.167C86.387 61.7139 83.0611 58.0803 79.6645 54.5041C78.6738 53.4789 77.6359 53.4051 76.8103 54.2745C75.9847 55.1439 76.0791 56.2102 77.0541 57.2519C77.9032 58.1541 78.7917 59.0154 79.6094 59.9504C79.9085 60.2727 80.0952 60.6905 80.1394 61.1368C80.1836 61.583 80.0828 62.0318 79.8532 62.4111C79.6567 62.8197 79.3275 63.1421 78.9242 63.3209C78.521 63.4997 78.0699 63.5232 77.6516 63.3871C77.1449 63.2118 76.6882 62.9073 76.3228 62.5013C74.31 60.4507 72.3522 58.3592 70.3472 56.3086C69.1678 55.1029 67.5088 55.4884 67.1078 57.1289C67.0278 57.5042 67.0519 57.8956 67.1772 58.2573C67.3025 58.619 67.5238 58.9359 67.8155 59.1712L72.1399 63.6906C72.4256 63.9622 72.6285 64.3152 72.7236 64.706C72.8186 65.0968 72.8016 65.508 72.6746 65.8888C72.5931 66.2849 72.3856 66.6407 72.0859 66.8982C71.7861 67.1558 71.4117 67.3002 71.0234 67.3078C70.3107 67.2703 69.6314 66.9811 69.0971 66.4876C67.0292 64.4616 65.0635 62.3209 63.0428 60.2457C62.1151 59.286 61.1558 59.2122 60.3224 59.9668C60.1222 60.1582 59.9638 60.3922 59.8579 60.653C59.752 60.9137 59.7011 61.1952 59.7085 61.4783C59.716 61.7615 59.7817 62.0396 59.9011 62.2939C60.0206 62.5482 60.1911 62.7728 60.401 62.9524C61.8477 64.5026 63.3259 66.0118 64.7805 67.5539C65.0973 67.8613 65.3071 68.2699 65.3769 68.7154C65.4466 69.1609 65.3723 69.6179 65.1657 70.0145C65.0126 70.425 64.7243 70.7652 64.3526 70.9741C63.9809 71.183 63.55 71.247 63.1372 71.1546C62.538 70.9793 61.9949 70.6394 61.5647 70.1704C56.6531 65.0905 51.7547 59.9942 46.8694 54.8814C46.627 54.611 46.364 54.3614 46.0831 54.135C45.8536 53.9542 45.5863 53.8325 45.3031 53.7799C45.0199 53.7274 44.7289 53.7454 44.4536 53.8326C44.1784 53.9198 43.9268 54.0736 43.7195 54.2815C43.5121 54.4895 43.3548 54.7456 43.2604 55.0291C42.8516 56.0954 43.4334 56.7926 44.086 57.4897C49.7209 63.3625 55.3558 69.2408 60.9907 75.1245C62.2566 76.4451 63.5303 77.7492 64.7726 79.0862C65.0908 79.4183 65.2955 79.8503 65.3551 80.3157C65.4148 80.7811 65.3262 81.254 65.1029 81.6617C64.8747 82.0623 64.5291 82.3758 64.1172 82.556C63.7052 82.7361 63.2486 82.7734 62.8148 82.6623C61.7848 82.4573 60.7548 82.2112 59.7169 82.0882C57.7518 81.7771 55.743 81.9974 53.8829 82.728C52.0833 83.5473 50.6693 85.0784 49.9515 86.9849Z" fill="#3464AF"/>
<path d="M83.1637 27.5998C84.3746 28.822 85.6326 29.9047 86.6705 31.1842C88.6783 33.6761 89.7905 36.8203 89.8155 40.0754C89.8548 41.5682 89.0764 42.5853 87.8577 42.6591C86.639 42.7329 85.8056 41.7569 85.727 40.2559C85.6963 38.8662 85.4035 37.4965 84.8653 36.225C84.3271 34.9535 83.554 33.805 82.5902 32.8453C81.6264 31.8855 80.4907 31.1333 79.2481 30.6315C78.0055 30.1298 76.6803 29.8884 75.3483 29.9211C55.0705 29.9211 34.7849 29.9621 14.4992 29.9211C11.9877 29.9097 9.5581 30.8524 7.66411 32.5731C5.77012 34.2938 4.54126 36.6749 4.20705 39.2716C3.90555 42.0443 4.65799 44.8298 6.3029 47.0303C7.94781 49.2309 10.3541 50.671 13.0053 51.0418C13.3837 51.0868 13.7648 51.1032 14.1454 51.091H30.3818C30.797 51.0588 31.2122 51.1524 31.5776 51.3605C31.9431 51.5686 32.2431 51.8823 32.4418 52.2639C32.6393 52.6089 32.7322 53.0081 32.7083 53.4092C32.6845 53.8102 32.545 54.1944 32.3082 54.5113C32.0709 54.8465 31.7539 55.1114 31.3885 55.2797C31.023 55.448 30.6219 55.5139 30.2245 55.471C24.8412 55.471 19.4527 55.471 14.0589 55.471C11.5543 55.5153 9.15382 56.5242 7.31928 58.3036C5.48474 60.083 4.34571 62.5072 4.12129 65.1098C3.89687 67.7125 4.60293 70.3098 6.10363 72.4022C7.60433 74.4945 9.79369 75.9341 12.2505 76.444C13.1308 76.6012 14.0231 76.6726 14.916 76.6573C22.6292 76.6573 30.3503 76.6573 38.0636 76.6573C38.5723 76.6364 39.0805 76.7086 39.5654 76.8705C39.9457 77.0106 40.2719 77.2761 40.4947 77.6268C40.7174 77.9776 40.8245 78.3945 40.7998 78.8144C40.8224 79.235 40.7145 79.652 40.4922 80.0036C40.2698 80.3552 39.9449 80.6227 39.5654 80.7666C39.1457 80.917 38.7038 80.9892 38.2602 80.9798C30.2874 80.9798 22.3147 80.9798 14.342 80.9798C11.3234 80.9881 8.37946 80.0009 5.93086 78.1593C3.48227 76.3176 1.65429 73.7158 0.708089 70.7255C-0.238115 67.7351 -0.254137 64.5094 0.662331 61.509C1.5788 58.5086 3.38086 55.8871 5.81103 54.0192L6.80173 53.2646C2.46942 50.1477 0.00839831 45.981 0.00839831 40.4609C0.00839831 34.9408 2.46155 30.8315 6.79386 27.7065C6.44791 27.4358 6.15699 27.1979 5.85821 26.9765C3.53263 25.2173 1.77011 22.767 0.801165 19.9459C-0.167782 17.1249 -0.298037 14.0644 0.427421 11.1649C1.15288 8.26533 2.70028 5.66168 4.86724 3.69444C7.03421 1.72721 9.71986 0.487985 12.5729 0.138851C13.3007 0.0447624 14.0332 -0.00453641 14.7666 -0.00878906H75.0416C82.5111 -0.00878906 88.3609 4.91254 89.5875 12.5488C90.5467 18.5036 88.4474 23.3757 83.8557 27.0585C83.6276 27.239 83.3839 27.403 83.148 27.5752C83.1559 27.5998 83.1401 27.6327 83.1637 27.5998ZM44.9434 25.5329H75.7414C77.2549 25.5029 78.7427 25.1198 80.0958 24.4119C81.4489 23.7039 82.6329 22.689 83.5611 21.4416C84.4892 20.1941 85.1379 18.7458 85.4596 17.2027C85.7814 15.6597 85.7679 14.0611 85.4203 12.5242C84.2095 7.47163 80.286 4.32198 75.1202 4.32198C54.9709 4.32198 34.819 4.32198 14.6644 4.32198C13.9007 4.31956 13.138 4.38266 12.3842 4.51063C9.90146 4.99481 7.68095 6.42718 6.15644 8.52791C4.63193 10.6286 3.91292 13.2468 4.13991 15.871C4.3669 18.4951 5.52357 20.9368 7.38395 22.7189C9.24432 24.501 11.6748 25.4956 14.2005 25.5083L44.9434 25.5329Z" fill="#3464AF"/>
<path d="M18.3827 34.1134C19.5951 34.1053 20.7826 34.4727 21.7946 35.1691C22.8067 35.8655 23.5978 36.8596 24.0679 38.0255C24.538 39.1913 24.6658 40.4764 24.4352 41.7181C24.2046 42.9598 23.626 44.1021 22.7725 45.0005C21.9191 45.8988 20.8293 46.5128 19.6411 46.7645C18.453 47.0162 17.2199 46.8944 16.0982 46.4146C14.9764 45.9347 14.0164 45.1184 13.3398 44.0689C12.6631 43.0194 12.3002 41.7841 12.2971 40.5193C12.2908 39.6811 12.4436 38.8499 12.7466 38.0735C13.0495 37.2971 13.4967 36.5909 14.0623 35.9955C14.6279 35.4001 15.3008 34.9273 16.0423 34.6043C16.7838 34.2813 17.5792 34.1145 18.3827 34.1134ZM20.3877 40.5193C20.3908 40.1073 20.2767 39.7036 20.0599 39.3592C19.843 39.0148 19.5331 38.7452 19.1694 38.5845C18.8057 38.4239 18.4045 38.3793 18.0165 38.4565C17.6285 38.5337 17.2712 38.7292 16.9897 39.0183C16.7082 39.3073 16.5152 39.677 16.4351 40.0805C16.355 40.4839 16.3913 40.9031 16.5396 41.2851C16.6879 41.667 16.9414 41.9944 17.2681 42.2261C17.5947 42.4577 17.9799 42.583 18.3749 42.5863C18.6389 42.5952 18.9018 42.5481 19.1478 42.4478C19.3938 42.3475 19.6177 42.1961 19.806 42.0029C19.9942 41.8096 20.1428 41.5784 20.2428 41.3234C20.3428 41.0684 20.3921 40.7948 20.3877 40.5193Z" fill="#44454C"/>
<path d="M12.2971 66.0117C12.3002 64.7477 12.6626 63.513 13.3386 62.4639C14.0146 61.4147 14.9736 60.5984 16.0945 60.118C17.2153 59.6376 18.4476 59.5149 19.6353 59.7653C20.823 60.0157 21.9129 60.628 22.767 61.5247C23.621 62.4214 24.2009 63.5622 24.4333 64.8028C24.6657 66.0434 24.5402 67.328 24.0725 68.4942C23.6048 69.6603 22.8161 70.6555 21.8061 71.3539C20.7961 72.0523 19.6102 72.4225 18.3985 72.4177C17.5936 72.4188 16.7965 72.2535 16.0532 71.9315C15.3099 71.6095 14.6351 71.137 14.0678 70.5414C13.5005 69.9458 13.052 69.2388 12.748 68.4614C12.4441 67.6839 12.2908 66.8513 12.2971 66.0117ZM20.4113 66.0117C20.4082 65.5994 20.2878 65.1972 20.0654 64.8563C19.843 64.5153 19.5286 64.2509 19.1621 64.0965C18.7955 63.9421 18.3933 63.9046 18.0063 63.9889C17.6193 64.0731 17.265 64.2753 16.9882 64.5697C16.7115 64.8642 16.5247 65.2377 16.4516 65.643C16.3785 66.0483 16.4223 66.4671 16.5776 66.8463C16.7328 67.2256 16.9924 67.5483 17.3236 67.7735C17.6547 67.9987 18.0425 68.1164 18.4378 68.1115C18.6992 68.1116 18.958 68.0569 19.1988 67.9506C19.4396 67.8443 19.6574 67.6886 19.8393 67.4927C20.0212 67.2968 20.1635 67.0648 20.2577 66.8103C20.352 66.5559 20.3962 66.2843 20.3877 66.0117H20.4113Z" fill="#44454C"/>
<path d="M38.7471 46.884C37.5388 46.8644 36.363 46.472 35.3683 45.7562C34.3735 45.0403 33.6043 44.0332 33.1577 42.8618C32.7111 41.6904 32.6071 40.4072 32.8588 39.1742C33.1105 37.9412 33.7067 36.8136 34.5721 35.9336C35.4375 35.0537 36.5333 34.4609 37.7214 34.23C38.9094 33.9991 40.1364 34.1405 41.2474 34.6363C42.3585 35.1321 43.304 35.9601 43.9645 37.0158C44.6249 38.0715 44.9709 39.3077 44.9586 40.5683C44.9525 41.4097 44.7865 42.2415 44.4702 43.0156C44.1539 43.7897 43.6936 44.4907 43.116 45.0781C42.5384 45.6654 41.8548 46.1274 41.1049 46.4374C40.355 46.7474 39.5536 46.8992 38.7471 46.884ZM38.8414 38.4193C38.5792 38.4107 38.3178 38.456 38.0724 38.5527C37.8269 38.6495 37.6021 38.7957 37.4108 38.9831C37.2195 39.1704 37.0655 39.3953 36.9575 39.6447C36.8495 39.8942 36.7897 40.1634 36.7814 40.437C36.7732 40.7106 36.8166 40.9832 36.9094 41.2393C37.0021 41.4953 37.1423 41.7298 37.3219 41.9294C37.5015 42.1289 37.717 42.2896 37.9561 42.4023C38.1953 42.515 38.4534 42.5774 38.7156 42.586C38.9779 42.5946 39.2392 42.5493 39.4847 42.4525C39.7301 42.3558 39.9549 42.2096 40.1462 42.0222C40.3375 41.8348 40.4915 41.61 40.5995 41.3605C40.7075 41.1111 40.7674 40.8418 40.7756 40.5683C40.7839 40.2947 40.7404 40.022 40.6477 39.766C40.555 39.5099 40.4148 39.2754 40.2352 39.0759C40.0556 38.8763 39.84 38.7156 39.6009 38.603C39.3618 38.4903 39.1037 38.4279 38.8414 38.4193Z" fill="#44454C"/>
<path d="M24.5156 14.9854C24.5156 16.2512 24.1551 17.4885 23.48 18.5403C22.8049 19.5921 21.8455 20.411 20.7235 20.8931C19.6016 21.3753 18.3676 21.4989 17.1782 21.2483C15.9888 20.9978 14.8976 20.3843 14.0429 19.4858C13.1882 18.5873 12.6086 17.4442 12.3776 16.2015C12.1466 14.9588 12.2747 13.6726 12.7455 12.506C13.2163 11.3393 14.0087 10.3449 15.0222 9.64872C16.0356 8.95258 17.2244 8.58614 18.4378 8.59589C19.2396 8.59696 20.0334 8.76331 20.7734 9.0854C21.5134 9.40749 22.1851 9.87895 22.7499 10.4727C23.3147 11.0665 23.7614 11.7708 24.0645 12.5452C24.3675 13.3197 24.5208 14.149 24.5156 14.9854ZM18.4771 12.861C18.0826 12.8436 17.692 12.9485 17.3547 13.1626C17.0174 13.3766 16.7485 13.6902 16.5819 14.0636C16.4153 14.4371 16.3586 14.8536 16.4189 15.2607C16.4792 15.6677 16.6538 16.047 16.9206 16.3506C17.1875 16.6542 17.5346 16.8684 17.9181 16.9662C18.3016 17.0641 18.7044 17.0412 19.0754 16.9003C19.4464 16.7595 19.7691 16.5071 20.0027 16.175C20.2363 15.843 20.3703 15.4461 20.3877 15.0346C20.4037 14.7599 20.3664 14.4847 20.2782 14.2254C20.19 13.966 20.0527 13.7278 19.8744 13.525C19.6961 13.3222 19.4806 13.1589 19.2405 13.0448C19.0004 12.9307 18.7408 12.8682 18.4771 12.861Z" fill="#44454C"/>
<path d="M38.7161 21.3335C37.5099 21.3093 36.3375 20.9141 35.3459 20.1974C34.3543 19.4807 33.5876 18.4746 33.1421 17.3051C32.6965 16.1357 32.5919 14.855 32.8414 13.6238C33.0909 12.3925 33.6833 11.2656 34.5444 10.3842C35.4056 9.50291 36.497 8.90647 37.6818 8.66974C38.8666 8.43301 40.092 8.56652 41.2043 9.05353C42.3167 9.54055 43.2664 10.3594 43.9344 11.4073C44.6023 12.4552 44.9588 13.6856 44.959 14.944C44.9624 15.7945 44.8023 16.6371 44.4883 17.4219C44.1742 18.2068 43.7126 18.9181 43.1306 19.5137C42.5487 20.1093 41.8582 20.5773 41.0999 20.8898C40.3417 21.2024 39.5311 21.3533 38.7161 21.3335ZM40.8075 14.9112C40.8076 14.6377 40.7552 14.367 40.6535 14.1149C40.5518 13.8629 40.4028 13.6346 40.2152 13.4436C40.0276 13.2525 39.8053 13.1025 39.5614 13.0024C39.3174 12.9023 39.0568 12.8541 38.7947 12.8606C38.5324 12.8655 38.2736 12.9242 38.0331 13.0334C37.7926 13.1425 37.575 13.3001 37.3929 13.4969C37.2107 13.6938 37.0675 13.9262 36.9714 14.1808C36.8754 14.4355 36.8283 14.7073 36.8329 14.9809C36.8376 15.2545 36.8938 15.5245 36.9985 15.7754C37.1032 16.0263 37.2542 16.2532 37.4429 16.4433C37.6316 16.6333 37.8544 16.7827 38.0985 16.8829C38.3425 16.9831 38.6032 17.0322 38.8654 17.0274C39.1273 17.0253 39.3861 16.9686 39.6265 16.8604C39.8669 16.7522 40.0841 16.5947 40.2652 16.3974C40.4463 16.2001 40.5876 15.9669 40.6807 15.7116C40.7739 15.4564 40.817 15.1842 40.8075 14.9112Z" fill="#44454C"/>
</g>
<defs>
<clipPath id="clip0_6322_6355">
<rect width="98" height="98" fill="white"/>
</clipPath>
</defs>
</svg>
