<svg width="86" height="84" viewBox="0 0 86 84" fill="none" xmlns="http://www.w3.org/2000/svg">
<g clip-path="url(#clip0_6343_6154)">
<path d="M85.6321 83.2139H37.4981V79.7243H82.1818C82.2085 79.6227 82.2274 79.5192 82.2385 79.4146C82.2385 74.0102 81.2789 68.8326 78.6443 64.0519C76.2583 59.7248 72.821 56.4098 68.6467 53.8231C68.3108 53.6181 68.1843 53.8231 68.0011 53.9845C64.9313 56.964 61.044 58.9623 56.8346 59.7248C49.4193 61.0334 42.8764 59.1709 37.2713 54.111L36.8656 53.7315L36.7609 53.6792C34.8423 54.8136 33.056 56.1581 31.435 57.6878L28.8789 55.3673C29.8822 53.9627 34.7675 50.4863 37.4544 49.2344L38.6191 50.4644C41.8993 53.954 45.8992 56.0521 50.6755 56.497C56.5947 57.0466 61.7068 55.1884 65.9423 51.0271C66.457 50.5211 66.9412 49.9759 67.469 49.4874C67.5455 49.4304 67.6346 49.3928 67.7287 49.3776C67.8229 49.3624 67.9193 49.3701 68.0098 49.4001C73.0959 52.1176 77.4665 55.6464 80.6333 60.5405C82.9706 64.1868 84.5299 68.2765 85.2133 72.5533C85.7552 75.9813 85.9015 79.4602 85.6495 82.9216C85.6487 83.0193 85.6429 83.1168 85.6321 83.2139Z" fill="#3464AF" stroke="#3464AF" stroke-width="0.420978" stroke-miterlimit="10"/>
<path d="M73.1853 31.7028C73.2507 42.9391 63.9903 52.2475 52.6842 52.3042C48.6054 52.3241 44.6125 51.1327 41.2115 48.8811C37.8104 46.6295 35.1542 43.419 33.5796 39.6564C32.0049 35.8937 31.5826 31.7484 32.3661 27.7455C33.1497 23.7426 35.1038 20.0624 37.981 17.1712C40.8581 14.28 44.5287 12.3079 48.5277 11.5048C52.5267 10.7017 56.6741 11.1038 60.4444 12.6601C64.2146 14.2164 67.4381 16.8568 69.7062 20.2469C71.9744 23.6369 73.1853 27.6239 73.1853 31.7028ZM35.4938 31.7028C35.4886 35.0842 36.4874 38.391 38.3636 41.2041C40.2398 44.0173 42.909 46.2101 46.0328 47.5047C49.1565 48.7993 52.5943 49.1373 55.9104 48.4761C59.2265 47.8148 62.2717 46.1839 64.6599 43.7901C67.0482 41.3964 68.6721 38.3475 69.3257 35.0298C69.9793 31.7122 69.6333 28.2752 68.3315 25.1544C67.0297 22.0337 64.8308 19.3696 62.0133 17.4999C59.1959 15.6302 55.8867 14.639 52.5053 14.6519C47.9939 14.6727 43.6737 16.4764 40.4869 19.6697C37.3001 22.8631 35.5052 27.187 35.4938 31.6984V31.7028Z" fill="#3464AF" stroke="#3464AF" stroke-width="0.420978" stroke-miterlimit="10"/>
<path d="M23.746 63.658C23.8144 66.8913 24.5869 70.0709 26.0098 72.9751C27.5092 75.8215 29.7064 78.2409 32.3957 80.0065L31.0523 83.2431C29.8702 82.9465 28.6794 82.6848 27.5147 82.3445C23.1048 81.0578 19.118 79.0077 15.816 75.7536C12.6395 72.5944 10.464 68.5695 9.56098 64.1814C9.46938 63.7758 9.32981 63.6405 8.91106 63.6449C7.25788 63.6711 5.60908 63.6449 3.9559 63.6449C3.81161 63.6709 3.66284 63.64 3.54085 63.5586C3.41885 63.4773 3.33312 63.3519 3.30161 63.2087C3.03553 62.4584 2.73456 61.7213 2.42922 60.9928C2.36172 60.8755 2.33955 60.7375 2.36687 60.6049C2.3942 60.4722 2.46911 60.3542 2.57751 60.2731C6.35786 56.6818 10.1295 53.0832 13.8924 49.4773L16.5096 46.9648L20.6054 50.8906C23.839 53.9788 27.0727 57.0656 30.3064 60.151C30.4682 60.2527 30.5838 60.4137 30.6286 60.5995C30.6734 60.7852 30.6439 60.9812 30.5463 61.1455C30.2389 61.7988 29.968 62.4687 29.735 63.152C29.7062 63.3123 29.6154 63.4548 29.4824 63.5487C29.3493 63.6426 29.1846 63.6803 29.024 63.6536C27.4667 63.6275 25.9052 63.6536 24.348 63.6536L23.746 63.658ZM24.5225 77.4068C20.8453 72.2161 19.9948 66.3275 20.1605 60.0943H25.1069L16.5183 51.8851L7.90343 60.1161H12.4704C13.2774 68.1246 17.1202 74.0132 24.5225 77.4068Z" fill="#44454C" stroke="#44454C" stroke-width="0.420978" stroke-miterlimit="10"/>
<path d="M42.498 9.56512L39.3836 11.0874C37.4513 7.4583 34.5375 5.04615 30.5114 4.10833C27.6521 3.41967 24.642 3.75138 22.0013 5.04615C19.2153 6.3436 16.9748 8.58024 15.6725 11.3641C14.3703 14.1479 14.0895 17.3012 14.8792 20.2713C15.669 23.2415 17.4789 25.8389 19.9918 27.6083C22.5047 29.3777 25.5602 30.2061 28.6227 29.9485C28.675 30.5068 28.7318 31.0738 28.7798 31.6365C28.8277 32.1992 28.8626 32.7794 28.9019 33.3464C23.5541 34.1141 15.0004 31.0826 11.9121 22.3063C10.4017 18.2854 10.5112 13.8352 12.2174 9.89341C13.9236 5.9516 17.0933 2.82603 21.0587 1.17531C25.024 -0.475419 29.4754 -0.522397 33.4747 1.04428C37.474 2.61095 40.709 5.66892 42.498 9.57384V9.56512Z" fill="#3464AF" stroke="#3464AF" stroke-width="0.420978" stroke-miterlimit="10"/>
<path d="M15.0897 30.5859C16.9828 32.8062 19.1724 34.6513 21.9859 35.6414C24.7221 36.6224 27.687 36.7741 30.5091 36.0776L31.3815 39.5236C24.9302 40.9412 19.3033 39.4669 14.3699 35.0482C8.10184 39.1484 4.86528 45.1112 3.69192 52.4349L2.00817 52.195C1.44112 52.1078 0.878445 52.0118 0.228516 51.9071C0.708605 48.19 1.89293 44.5986 3.71807 41.325C6.31612 36.6627 10.2865 32.9132 15.0897 30.5859Z" fill="#3464AF" stroke="#3464AF" stroke-width="0.420978" stroke-miterlimit="10"/>
</g>
<defs>
<clipPath id="clip0_6343_6154">
<rect width="86" height="83.505" fill="white"/>
</clipPath>
</defs>
</svg>
