<svg width="140" height="85" viewBox="0 0 140 85" fill="none" xmlns="http://www.w3.org/2000/svg">
<g clip-path="url(#clip0_6322_6358)">
<path d="M93.1047 63.8673C92.4268 65.2076 91.2785 65.407 89.9148 65.407C76.4454 65.3671 62.9761 65.407 49.5068 65.407C49.1456 65.4269 48.7835 65.4269 48.4222 65.407C47.878 65.341 47.3751 65.083 47.0038 64.6795C46.6326 64.2759 46.4173 63.7533 46.3966 63.2052C46.4008 62.9213 46.4608 62.641 46.5733 62.3803C46.6857 62.1196 46.8485 61.8836 47.0521 61.6858C47.2558 61.488 47.4964 61.3323 47.7602 61.2275C48.024 61.1227 48.3059 61.071 48.5897 61.0752C49.132 61.0752 49.6822 61.0752 50.2245 61.0752H89.3885L86.9242 55.5947H82.8332C71.7271 55.5947 60.6156 55.5947 49.4988 55.5947C49.3091 55.5595 49.1141 55.5636 48.926 55.6068C48.7379 55.65 48.5607 55.7312 48.4052 55.8456C48.2498 55.96 48.1194 56.1051 48.0222 56.2719C47.925 56.4386 47.863 56.6236 47.8401 56.8153C47.3491 58.5195 46.4756 60.0891 45.2861 61.4043C44.0966 62.7194 42.6225 63.7455 40.9764 64.4042C39.3302 65.0629 37.5554 65.3368 35.7873 65.2051C34.0193 65.0733 32.3046 64.5394 30.7742 63.644L30.1202 63.293C29.7135 64.9443 28.5971 65.415 26.9862 65.407C18.9157 65.3591 10.8453 65.407 2.77485 65.407C2.30312 65.4693 1.82354 65.3895 1.39738 65.1778C0.971215 64.9661 0.617831 64.632 0.382428 64.2184C0.217179 63.9209 0.12529 63.5884 0.114381 63.2483C0.103471 62.9082 0.173888 62.5704 0.319736 62.263C0.465584 61.9556 0.682651 61.6875 0.952935 61.4809C1.22322 61.2743 1.53888 61.1352 1.8737 61.0752C2.27962 61.0393 2.68794 61.0393 3.09386 61.0752H27.345L24.9047 55.6904C22.3369 55.6904 19.6574 55.5867 16.9938 55.6904C12.9267 55.8899 9.92024 52.667 9.93619 48.6144C9.98404 35.1883 9.93619 21.7622 9.93619 8.33615C9.93619 3.19068 13.1261 0.0794584 18.2857 0.0794584C48.805 0.0794584 79.3243 0.15922 109.844 0.015625C115.777 0.015625 120.075 2.48066 123.592 6.86827C126.848 10.8744 128.68 15.8503 128.8 21.0123C129.103 30.1625 129.406 39.3127 129.597 48.4708C129.693 52.9143 126.941 55.5787 122.523 55.5947H111.271C110.641 55.5947 110.25 55.6505 110.019 56.4403C107.874 63.7397 100.832 67.0743 93.7985 64.1705L93.1047 63.8673ZM125.067 30.5773C122.053 30.5773 119.15 30.4258 116.295 30.5773C111.271 30.8885 106.725 26.9635 106.845 21.14C106.933 16.0663 106.845 10.9847 106.845 5.90301V4.45908H102.475V5.86313C102.475 11.8941 102.475 17.9251 102.427 23.964C102.413 24.8816 102.207 25.786 101.823 26.6192C101.438 27.4524 100.884 28.196 100.195 28.8022C99.5066 29.4085 98.6989 29.8639 97.8238 30.1394C96.9488 30.4149 96.0259 30.5043 95.1143 30.4018C88.7345 29.8195 82.2909 29.3807 75.8793 28.8781L60.2966 27.6735L41.0615 26.1738L25.3434 24.9452L14.5057 24.1475C14.4251 24.3391 14.3688 24.5401 14.3382 24.7458C14.3382 32.819 14.3382 40.8922 14.3382 48.9654C14.3382 50.5609 15.2075 51.2789 16.8822 51.2869C19.2746 51.2869 21.5952 51.239 23.9557 51.2869C24.9207 51.2869 25.2238 50.9678 25.4869 50.0743C26.0666 48.1785 27.1195 46.4617 28.5463 45.0858C29.9731 43.7099 31.7267 42.7202 33.6418 42.2101C35.5569 41.7 37.5704 41.6864 39.4922 42.1704C41.414 42.6545 43.181 43.6203 44.6263 44.9767C46.3661 46.6659 47.5887 48.816 48.1511 51.1752C48.3227 51.2052 48.4957 51.2265 48.6695 51.239C61.1792 51.239 73.6942 51.239 86.2145 51.239C87.012 51.239 87.2432 50.888 87.4506 50.186C88.2356 47.4536 89.9964 45.1048 92.3986 43.5856C94.8009 42.0664 97.6772 41.4827 100.481 41.9452C105.266 42.743 108.4 45.6149 109.987 50.2179C110.123 50.6088 110.601 51.1752 110.928 51.1832C114.963 51.247 118.999 51.247 123.034 51.1832C123.342 51.1952 123.65 51.142 123.937 51.0269C124.223 50.9118 124.482 50.7375 124.697 50.5153C124.911 50.2931 125.077 50.0282 125.182 49.7377C125.287 49.4472 125.329 49.1379 125.307 48.8298C125.307 48.2076 125.307 47.5853 125.307 46.8354C124.19 46.8354 123.201 46.8354 122.212 46.8354C121.907 46.8508 121.601 46.8031 121.314 46.6952C121.028 46.5873 120.766 46.4216 120.546 46.2084C120.326 45.9951 120.153 45.7389 120.036 45.4557C119.919 45.1724 119.862 44.8682 119.868 44.5618C119.916 43.3014 120.785 42.5196 122.26 42.4877C123.241 42.4877 124.23 42.4877 125.243 42.4877V39.2249C124.15 39.2249 123.161 39.2648 122.165 39.2249C121.87 39.2281 121.577 39.173 121.303 39.0627C121.03 38.9525 120.781 38.7893 120.57 38.5825C120.36 38.3757 120.192 38.1294 120.077 37.8577C119.962 37.586 119.902 37.2943 119.9 36.9992C119.899 36.7044 119.959 36.4126 120.077 36.1424C120.195 35.8722 120.368 35.6296 120.584 35.4299C120.801 35.2303 121.057 35.078 121.336 34.9829C121.615 34.8877 121.911 34.8517 122.204 34.8772C123.185 34.8772 124.174 34.8772 125.315 34.8772C125.203 33.3535 125.139 32.0292 125.067 30.5773ZM98.0889 4.51493H80.7279V24.8655C81.5253 24.9452 82.2351 25.041 82.9528 25.0888C87.0598 25.4079 91.1668 25.6951 95.2658 26.0222C97.1399 26.1738 98.0729 25.376 98.0809 23.4694C98.0809 20.204 98.0809 16.9412 98.0809 13.681L98.0889 4.51493ZM76.2301 24.5783V4.50695H59.0127V23.1902L76.2301 24.5783ZM54.4591 4.52289H37.2257V21.5309L54.4591 22.8711V4.52289ZM32.6961 21.14V4.42717C27.5364 4.42717 22.4645 4.38728 17.4005 4.42717C16.6349 4.42039 15.8968 4.71239 15.3429 5.24115C14.789 5.76992 14.4629 6.49383 14.4339 7.25919C14.3143 11.3596 14.394 15.476 14.394 19.7041L32.6961 21.14ZM124.852 26.1738C124.716 24.331 124.565 22.6717 124.477 21.0044C124.371 18.3056 123.704 15.6586 122.519 13.2317C121.334 10.8048 119.657 8.65128 117.595 6.90817C115.944 5.2906 113.718 4.39532 111.407 4.41921C111.319 4.60269 111.239 4.68246 111.239 4.76223C111.239 10.514 111.143 16.2657 111.239 22.0095C111.222 23.0485 111.602 24.0548 112.302 24.8228C113.001 25.5909 113.968 26.0627 115.003 26.1419C118.209 26.2695 121.423 26.1738 124.852 26.1738ZM36.6356 60.796C37.6002 60.8176 38.5593 60.6443 39.4556 60.2866C40.3517 59.9289 41.1666 59.3942 41.8515 58.7143C42.5364 58.0344 43.0772 57.2233 43.4416 56.3295C43.806 55.4358 43.9865 54.4777 43.9723 53.5126C43.9809 51.5666 43.2189 49.6964 41.8531 48.3106C40.4873 46.9249 38.6287 46.1364 36.6834 46.1175C34.7366 46.1379 32.8745 46.9168 31.4926 48.2887C30.1108 49.6607 29.318 51.5175 29.2829 53.4647C29.2828 54.4302 29.4731 55.3863 29.8427 56.2782C30.2123 57.1702 30.754 57.9805 31.4369 58.6628C32.1198 59.3452 32.9304 59.8862 33.8224 60.255C34.7144 60.6237 35.6704 60.813 36.6356 60.812V60.796ZM106.016 53.4567C106.03 52.4897 105.85 51.5296 105.487 50.6331C105.125 49.7365 104.587 48.9216 103.904 48.2362C103.222 47.5509 102.41 47.0089 101.515 46.6423C100.621 46.2757 99.6617 46.0918 98.695 46.1015C96.7438 46.1245 94.8797 46.9133 93.5044 48.2981C92.1291 49.6828 91.3525 51.5526 91.3422 53.5046C91.357 55.4518 92.1439 57.3136 93.5301 58.6808C94.9162 60.048 96.7882 60.8088 98.7348 60.796C99.6982 60.8101 100.655 60.6301 101.547 60.2665C102.439 59.903 103.249 59.3634 103.929 58.68C104.608 57.9966 105.143 57.1833 105.502 56.2887C105.86 55.3941 106.035 54.4364 106.016 53.4727V53.4567Z" fill="#44454C"/>
<path d="M69.6442 84.9925H3.24655C2.79165 85.0152 2.33565 85.0018 1.88286 84.9526C1.36468 84.8629 0.898244 84.584 0.574064 84.1698C0.249885 83.7556 0.09106 83.2356 0.128406 82.7109C0.131085 82.2049 0.31936 81.7174 0.657443 81.341C0.995526 80.9646 1.45995 80.7253 1.96263 80.6687C2.41365 80.6287 2.86728 80.6287 3.3183 80.6687H137.206C137.502 80.6563 137.798 80.7046 138.075 80.8107C138.352 80.9167 138.604 81.0783 138.817 81.2854C139.029 81.4925 139.197 81.7408 139.31 82.0152C139.423 82.2895 139.479 82.584 139.474 82.8806C139.469 83.1772 139.403 83.4698 139.281 83.7402C139.16 84.0106 138.984 84.2533 138.765 84.4533C138.545 84.6533 138.288 84.8064 138.008 84.9032C137.727 85.0001 137.43 85.0386 137.134 85.0164H69.6442V84.9925Z" fill="#3464AF"/>
<path d="M124.614 61.0275H136.855C138.45 61.0275 139.415 61.8253 139.439 63.1415C139.463 64.4578 138.474 65.3673 136.783 65.3673H112.173C110.491 65.3673 109.502 64.5137 109.518 63.1256C109.534 61.7375 110.475 61.0195 112.11 61.0195L124.614 61.0275Z" fill="#3464AF"/>
<path d="M69.995 61.0275H89.238C91.8138 61.0275 93.2652 61.8253 93.3051 63.1415C93.345 64.4578 91.7899 65.3673 89.1263 65.3673H50.4249C47.7853 65.3673 46.2303 64.5137 46.2542 63.1256C46.2781 61.7375 47.7534 61.0195 50.3213 61.0195L69.995 61.0275Z" fill="#3464AF" stroke="#3464AF" stroke-miterlimit="10"/>
<path d="M15.2877 61.0275H27.6884C29.3472 61.0275 30.2802 61.8253 30.3042 63.1415C30.3281 64.4578 29.3233 65.3673 27.6167 65.3673H2.68767C0.98905 65.3673 -0.0157624 64.5137 0.000187065 63.1256C0.0161365 61.7375 0.965112 61.0195 2.62386 61.0195L15.2877 61.0275Z" fill="#3464AF"/>
<path d="M5.5827 41.4905V45.7504C4.39446 45.7504 3.27 45.8302 2.16949 45.7504C1.60031 45.7075 1.07079 45.4426 0.694914 45.0129C0.319039 44.5831 0.126909 44.023 0.159891 43.4529C0.169005 43.171 0.234401 42.8938 0.35225 42.6376C0.470099 42.3814 0.638017 42.1513 0.846095 41.961C1.05417 41.7707 1.29821 41.624 1.56384 41.5295C1.82947 41.435 2.11133 41.3946 2.39281 41.4107C3.25408 41.4107 4.10735 41.4107 4.96065 41.4107C5.10419 41.4107 5.27168 41.4506 5.5827 41.4905Z" fill="#3464AF"/>
<path d="M133.975 45.7584V41.4745C135.303 41.3949 136.636 41.4109 137.962 41.5224C138.44 41.6155 138.863 41.8921 139.141 42.2931C139.418 42.6941 139.527 43.1877 139.445 43.6684C139.442 44.1982 139.236 44.7066 138.87 45.0893C138.503 45.4721 138.005 45.7001 137.476 45.7266C136.31 45.8015 135.141 45.8121 133.975 45.7584Z" fill="#3464AF"/>
</g>
<defs>
<clipPath id="clip0_6322_6358">
<rect width="139.438" height="85" fill="white"/>
</clipPath>
</defs>
</svg>
